<?xml version="1.0" encoding="UTF-8" standalone="no"?>
<!-- Created with Inkscape (http://www.inkscape.org/) -->

<svg
   xmlns:dc="http://purl.org/dc/elements/1.1/"
   xmlns:cc="http://creativecommons.org/ns#"
   xmlns:rdf="http://www.w3.org/1999/02/22-rdf-syntax-ns#"
   xmlns:svg="http://www.w3.org/2000/svg"
   xmlns="http://www.w3.org/2000/svg"
   xmlns:sodipodi="http://sodipodi.sourceforge.net/DTD/sodipodi-0.dtd"
   xmlns:inkscape="http://www.inkscape.org/namespaces/inkscape"
   width="166.12921mm"
   height="165.88527mm"
   viewBox="0 0 166.12921 165.88527"
   version="1.1"
   id="svg8"
   sodipodi:docname="logo.svg"
   inkscape:version="0.92.4 (5da689c313, 2019-01-14)">
  <defs
     id="defs2" />
  <sodipodi:namedview
     id="base"
     pagecolor="#ffffff"
     bordercolor="#666666"
     borderopacity="1.0"
     inkscape:pageopacity="0.0"
     inkscape:pageshadow="2"
     inkscape:zoom="0.24748737"
     inkscape:cx="-212.25356"
     inkscape:cy="328.34961"
     inkscape:document-units="mm"
     inkscape:current-layer="layer1"
     showgrid="false"
     showguides="true"
     inkscape:window-width="1366"
     inkscape:window-height="706"
     inkscape:window-x="-8"
     inkscape:window-y="-8"
     inkscape:window-maximized="1" />
  <metadata
     id="metadata5">
    <rdf:RDF>
      <cc:Work
         rdf:about="">
        <dc:format>image/svg+xml</dc:format>
        <dc:type
           rdf:resource="http://purl.org/dc/dcmitype/StillImage" />
        <dc:title></dc:title>
      </cc:Work>
    </rdf:RDF>
  </metadata>
  <g
     inkscape:label="Layer 1"
     inkscape:groupmode="layer"
     id="layer1"
     transform="translate(-215.66215,-56.0597)">
    <g
       id="g36"
       transform="matrix(2.1967108,0,0,2.1967108,199.60422,39.541087)"
       style="stroke-width:0.12044523">
      <g
         id="g14"
         style="stroke-width:0.12044523">
        <polygon
           id="polygon10"
           points="13.03,74.372 13.056,74.379 13.046,74.347 "
           style="fill:#000000;stroke-width:0.12044523" />
        <path
           id="path12"
           d="m 77.943,17.782 c 0.649,-1.02 4.63,-9.447 4.879,-10.079 -0.818,0.198 -8.012,3.931 -10.187,4.915 1.248,0.131 2.526,-0.077 3.754,0.578 L 16.565,73.021 c -1.101,0.363 -2.584,0.889 -3.193,1.273 -0.05,0.032 -0.111,0.074 -0.178,0.126 -1.368,1.044 -5.884,5.762 -5.884,5.762 l 2.666,0.149 -0.01,2.522 c 0,0 5.243,-4.802 5.959,-5.842 0.382,-0.557 0.95,-1.867 1.375,-2.917 l 59.946,-59.947 0.059,0.067 c 0.484,0.598 0.606,3.567 0.638,3.568 z"
           inkscape:connector-curvature="0"
           style="fill:#000000;stroke-width:0.12044523" />
      </g>
      <g
         id="g20"
         style="stroke-width:0.12044523">
        <polygon
           id="polygon16"
           points="74.16,77.313 74.167,77.288 74.135,77.298 "
           style="fill:#000000;stroke-width:0.12044523" />
        <path
           id="path18"
           d="M 17.57,12.401 C 16.55,11.752 8.123,7.772 7.491,7.523 c 0.198,0.818 3.931,8.011 4.915,10.186 0.131,-1.248 -0.077,-2.526 0.578,-3.753 L 72.809,73.78 c 0.363,1.101 0.889,2.585 1.273,3.192 0.031,0.05 0.074,0.112 0.126,0.178 1.044,1.368 5.762,5.885 5.762,5.885 l 0.148,-2.666 2.523,0.011 c 0,0 -4.802,-5.242 -5.843,-5.959 -0.556,-0.382 -1.867,-0.95 -2.916,-1.376 L 13.936,13.098 14.002,13.04 c 0.598,-0.485 3.567,-0.607 3.568,-0.639 z"
           inkscape:connector-curvature="0"
           style="fill:#000000;stroke-width:0.12044523" />
      </g>
    </g>
    <path
       style="fill:#0000ff;stroke-width:1"
       d=""
       id="path38"
       inkscape:connector-curvature="0"
       transform="scale(0.26458333)" />
    <path
       style="fill:#475b57;fill-opacity:0;stroke-width:0.26458332"
       d="m 368.71282,215.05156 c -4.22198,-4.46623 -6.57951,-7.66018 -7.48297,-10.13784 -1.13001,-3.09893 -5.6085,-7.92339 -31.25215,-33.6664 -16.46321,-16.52701 -30.27644,-30.04911 -30.69607,-30.04911 -1.48203,0 -62.20065,61.5591 -63.75147,64.63393 -0.8388,1.6631 -4.27203,5.73726 -7.62941,9.05369 l -6.10432,6.02989 v -2.76919 c 0,-2.57166 -0.17526,-2.78609 -2.45685,-3.00608 l -2.45684,-0.23688 6.20281,-6.07512 c 4.4242,-4.33312 7.24726,-6.4507 9.84527,-7.38493 3.15576,-1.1348 7.73054,-5.39882 34.23734,-31.91168 l 30.59487,-30.60187 -34.39019,-34.39642 C 244.45823,85.61552 228.64142,70.250716 228.22436,70.389543 c -0.41706,0.138824 -0.86325,0.904576 -0.99154,1.701671 -0.6238,3.875899 -1.25785,3.276697 -5.55023,-5.24514 -2.48282,-4.929243 -4.37418,-9.102304 -4.20301,-9.273468 0.17116,-0.171167 4.52922,1.693333 9.68456,4.143329 8.71896,4.143545 9.21503,4.491914 7.1055,4.989881 -3.59742,0.849196 -4.15774,1.079828 -4.15774,1.71137 0,0.326593 15.4786,16.069595 34.39688,34.984444 l 34.39688,34.39065 34.55176,-34.55177 c 19.00347,-19.003466 34.33913,-34.764394 34.07925,-35.024281 -0.25989,-0.259884 -1.94638,-0.675013 -3.74775,-0.922509 l -3.27523,-0.449996 9.82738,-4.688705 c 5.40506,-2.578787 9.91497,-4.612994 10.02204,-4.520461 0.10705,0.09253 -1.9058,4.559252 -4.47303,9.926039 -2.56722,5.366787 -4.75308,9.418034 -4.85745,9.002765 -0.10437,-0.415266 -0.41391,-2.088165 -0.68786,-3.717554 l -0.4981,-2.962529 -34.71539,34.709241 -34.71539,34.70923 30.0489,30.1057 c 23.39925,23.44348 30.96898,30.58274 34.20664,32.26135 2.42372,1.25662 6.67254,4.70242 10.18762,8.26217 l 6.02988,6.10653 h -2.77145 c -2.64385,0 -2.78226,0.12741 -3.00607,2.76731 l -0.23463,2.7673 z"
       id="path40"
       inkscape:connector-curvature="0" />
    <path
       style="fill:#475b57;fill-opacity:0;stroke-width:0.26458332"
       d="m 368.71282,215.05156 c -4.22198,-4.46623 -6.57951,-7.66018 -7.48297,-10.13784 -1.13001,-3.09893 -5.6085,-7.92339 -31.25215,-33.6664 -16.46321,-16.52701 -30.27644,-30.04911 -30.69607,-30.04911 -1.48203,0 -62.20065,61.5591 -63.75147,64.63393 -0.8388,1.6631 -4.27203,5.73726 -7.62941,9.05369 l -6.10432,6.02989 v -2.76919 c 0,-2.57166 -0.17526,-2.78609 -2.45685,-3.00608 l -2.45684,-0.23688 6.20281,-6.07512 c 4.4242,-4.33312 7.24726,-6.4507 9.84527,-7.38493 3.15576,-1.1348 7.73054,-5.39882 34.23734,-31.91168 l 30.59487,-30.60187 -34.39019,-34.39642 C 244.45823,85.61552 228.64142,70.250716 228.22436,70.389543 c -0.41706,0.138824 -0.86325,0.904576 -0.99154,1.701671 -0.6238,3.875899 -1.25785,3.276697 -5.55023,-5.24514 -2.48282,-4.929243 -4.37418,-9.102304 -4.20301,-9.273468 0.17116,-0.171167 4.52922,1.693333 9.68456,4.143329 8.71896,4.143545 9.21503,4.491914 7.1055,4.989881 -3.59742,0.849196 -4.15774,1.079828 -4.15774,1.71137 0,0.326593 15.4786,16.069595 34.39688,34.984444 l 34.39688,34.39065 34.55176,-34.55177 c 19.00347,-19.003466 34.33913,-34.764394 34.07925,-35.024281 -0.25989,-0.259884 -1.94638,-0.675013 -3.74775,-0.922509 l -3.27523,-0.449996 9.82738,-4.688705 c 5.40506,-2.578787 9.91497,-4.612994 10.02204,-4.520461 0.10705,0.09253 -1.9058,4.559252 -4.47303,9.926039 -2.56722,5.366787 -4.75308,9.418034 -4.85745,9.002765 -0.10437,-0.415266 -0.41391,-2.088165 -0.68786,-3.717554 l -0.4981,-2.962529 -34.71539,34.709241 -34.71539,34.70923 30.0489,30.1057 c 23.39925,23.44348 30.96898,30.58274 34.20664,32.26135 2.42372,1.25662 6.67254,4.70242 10.18762,8.26217 l 6.02988,6.10653 h -2.77145 c -2.64385,0 -2.78226,0.12741 -3.00607,2.76731 l -0.23463,2.7673 z"
       id="path4550"
       inkscape:connector-curvature="0" />
    <path
       style="fill:#475b57;fill-opacity:0;stroke-width:0.26458332"
       d="m 368.71282,215.05156 c -4.22198,-4.46623 -6.57951,-7.66018 -7.48297,-10.13784 -1.13001,-3.09893 -5.6085,-7.92339 -31.25215,-33.6664 -16.46321,-16.52701 -30.27644,-30.04911 -30.69607,-30.04911 -1.48203,0 -62.20065,61.5591 -63.75147,64.63393 -0.8388,1.6631 -4.27203,5.73726 -7.62941,9.05369 l -6.10432,6.02989 v -2.76919 c 0,-2.57166 -0.17526,-2.78609 -2.45685,-3.00608 l -2.45684,-0.23688 6.20281,-6.07512 c 4.4242,-4.33312 7.24726,-6.4507 9.84527,-7.38493 3.15576,-1.1348 7.73054,-5.39882 34.23734,-31.91168 l 30.59487,-30.60187 -34.39019,-34.39642 C 244.45823,85.61552 228.64142,70.250716 228.22436,70.389543 c -0.41706,0.138824 -0.86325,0.904576 -0.99154,1.701671 -0.6238,3.875899 -1.25785,3.276697 -5.55023,-5.24514 -2.48282,-4.929243 -4.37418,-9.102304 -4.20301,-9.273468 0.17116,-0.171167 4.52922,1.693333 9.68456,4.143329 8.71896,4.143545 9.21503,4.491914 7.1055,4.989881 -3.59742,0.849196 -4.15774,1.079828 -4.15774,1.71137 0,0.326593 15.4786,16.069595 34.39688,34.984444 l 34.39688,34.39065 34.55176,-34.55177 c 19.00347,-19.003466 34.33913,-34.764394 34.07925,-35.024281 -0.25989,-0.259884 -1.94638,-0.675013 -3.74775,-0.922509 l -3.27523,-0.449996 9.82738,-4.688705 c 5.40506,-2.578787 9.91497,-4.612994 10.02204,-4.520461 0.10705,0.09253 -1.9058,4.559252 -4.47303,9.926039 -2.56722,5.366787 -4.75308,9.418034 -4.85745,9.002765 -0.10437,-0.415266 -0.41391,-2.088165 -0.68786,-3.717554 l -0.4981,-2.962529 -34.71539,34.709241 -34.71539,34.70923 30.0489,30.1057 c 23.39925,23.44348 30.96898,30.58274 34.20664,32.26135 2.42372,1.25662 6.67254,4.70242 10.18762,8.26217 l 6.02988,6.10653 h -2.77145 c -2.64385,0 -2.78226,0.12741 -3.00607,2.76731 l -0.23463,2.7673 z"
       id="path4552"
       inkscape:connector-curvature="0" />
    <path
       style="fill:#475b57;fill-opacity:0.99183673;stroke-width:1"
       d=""
       id="path4554"
       inkscape:connector-curvature="0"
       transform="scale(0.26458333)" />
    <path
       style="fill:#475b57;fill-opacity:0.99183673;stroke-width:0.26458332"
       d="m 368.57919,215.38565 c -4.68741,-4.59173 -7.84367,-7.52655 -8.27941,-10.40511 -0.49369,-3.26138 -4.83856,-7.8311 -30.70005,-33.35524 -16.84119,-16.62151 -29.92072,-30.03275 -30.3181,-29.89792 0,0 -62.57961,59.95089 -62.94966,63.77067 -0.29043,2.99785 -4.57372,6.50897 -8.03031,9.72187 l -6.80502,6.32525 0.0325,-3.265 c 0.0256,-2.57154 0.15883,-2.18474 -2.12276,-2.40473 l -3.74423,-0.19769 7.08929,-7.25021 c 4.32949,-4.42775 6.97999,-6.8516 10.17936,-7.45174 3.15576,-1.1348 6.96488,-5.25219 33.55295,-31.68356 l 30.22092,-30.36227 -33.80432,-34.01844 c -18.85649,-18.975946 -34.7881,-34.131647 -35.20516,-33.99282 -0.41706,0.138824 -0.14509,3.833892 -0.27338,4.630986 -0.37621,6.351423 -0.5652,2.892941 -6.1172,-8.609129 -2.39922,-4.970467 -5.416,-10.702462 -5.24483,-10.873626 0.17116,-0.171167 5.88013,2.725886 11.10436,5.119828 8.21947,3.766471 12.3313,5.201523 10.2238,5.708036 -2.74697,0.660207 -6.74687,0.890839 -6.74687,1.522381 0,0.326593 15.84779,15.646593 34.52917,34.795464 l 33.73542,33.52129 34.55176,-34.55176 c 19.00347,-19.003472 33.80996,-33.706064 33.55008,-33.965951 -0.25989,-0.259884 -1.40802,-0.225795 -3.21858,-0.393342 l -4.86273,-0.449996 11.41488,-5.747038 c 5.34903,-2.693075 12.37622,-6.33571 11.19913,-5.163503 1.17709,-1.172207 -2.02456,5.202293 -4.59179,10.56908 -2.56722,5.366788 -5.81141,12.063868 -5.91578,11.648599 -0.10437,-0.415266 -0.94308,-4.204832 -1.21703,-5.834221 l -0.4981,-1.904196 -34.18622,34.180068 -33.65706,34.18007 29.46304,29.53874 c 23.39131,23.4514 31.26319,30.90312 34.73105,32.03188 2.42373,0.78889 6.3644,5.01661 9.65846,8.79134 l 5.81583,6.44899 -3.02512,-0.0752 c -2.64303,-0.0657 -2.44817,0.12741 -2.67199,2.76731 l -0.17031,3.14016 z"
       id="path4556"
       inkscape:connector-curvature="0"
       sodipodi:nodetypes="sssssscsccscscsccscsssscscscscccccccssscsccs" />
    <text
       xml:space="preserve"
       style="font-style:normal;font-weight:normal;font-size:70.55555725px;line-height:1.25;font-family:sans-serif;letter-spacing:0px;word-spacing:0px;fill:#333333;fill-opacity:1;stroke:none;stroke-width:0.26458332"
       x="223.38393"
       y="162.81845"
       id="text4560"><tspan
         sodipodi:role="line"
         id="tspan4558"
         x="223.38393"
         y="162.81845"
         style="font-style:normal;font-variant:normal;font-weight:normal;font-stretch:normal;font-size:70.55555725px;font-family:'Polar Vertex';-inkscape-font-specification:'Polar Vertex';fill:#333333;stroke-width:0.26458332">N</tspan></text>
    <text
       xml:space="preserve"
       style="font-style:normal;font-variant:normal;font-weight:normal;font-stretch:normal;font-size:70.55555725px;line-height:1.25;font-family:'Polar Vertex';-inkscape-font-specification:'Polar Vertex';letter-spacing:0px;word-spacing:0px;fill:#333333;fill-opacity:1;stroke:none;stroke-width:0.26458332"
       x="336.02084"
       y="165.3131"
       id="text4564"><tspan
         sodipodi:role="line"
         x="336.02084"
         y="165.3131"
         style="font-style:normal;font-variant:normal;font-weight:normal;font-stretch:normal;font-size:70.55555725px;font-family:'Polar Vertex';-inkscape-font-specification:'Polar Vertex';fill:#333333;stroke-width:0.26458332"
         id="tspan4566">T</tspan></text>
    <text
       xml:space="preserve"
       style="font-style:normal;font-weight:normal;font-size:13.0527792px;line-height:1.10000002;font-family:sans-serif;letter-spacing:0px;word-spacing:0px;fill:#333333;fill-opacity:1;stroke:none;stroke-width:0.26458332"
       x="298.38968"
       y="190.93976"
       id="text4576"><tspan
         sodipodi:role="line"
         id="tspan4574"
         x="298.38968"
         y="190.93976"
         style="font-style:normal;font-variant:normal;font-weight:normal;font-stretch:normal;font-size:13.0527792px;line-height:1.10000002;font-family:Nord;-inkscape-font-specification:Nord;text-align:center;text-anchor:middle;fill:#333333;stroke-width:0.26458332">above</tspan><tspan
         sodipodi:role="line"
         x="298.38968"
         y="205.78508"
         style="font-style:normal;font-variant:normal;font-weight:normal;font-stretch:normal;font-size:13.0527792px;line-height:1.10000002;font-family:Nord;-inkscape-font-specification:Nord;text-align:center;text-anchor:middle;fill:#333333;stroke-width:0.26458332"
         id="tspan4578">the mountains</tspan></text>
    <text
       xml:space="preserve"
       style="font-style:normal;font-variant:normal;font-weight:normal;font-stretch:normal;font-size:10.58333302px;line-height:1.25;font-family:Nord;-inkscape-font-specification:Nord;letter-spacing:0px;word-spacing:0px;fill:#333333;fill-opacity:1;stroke:none;stroke-width:0.26458332"
       x="299.52213"
       y="76.186295"
       id="text4582"><tspan
         sodipodi:role="line"
         id="tspan4580"
         x="299.52213"
         y="76.186295"
         style="font-style:normal;font-variant:normal;font-weight:normal;font-stretch:normal;font-size:13.05277824px;font-family:Nord;-inkscape-font-specification:Nord;text-align:center;text-anchor:middle;fill:#333333;stroke-width:0.26458332">beyond</tspan><tspan
         sodipodi:role="line"
         x="299.52213"
         y="92.502266"
         style="font-style:normal;font-variant:normal;font-weight:normal;font-stretch:normal;font-size:13.05277824px;font-family:Nord;-inkscape-font-specification:Nord;text-align:center;text-anchor:middle;fill:#333333;stroke-width:0.26458332"
         id="tspan4584">the ocean</tspan></text>
  </g>
</svg>
